<svg width="16" height="16" viewBox="0 0 512 512" version="1.1" xmlns="http://www.w3.org/2000/svg">
<g id="#000000ff">
</g>
<g id="#a7aaadff">
<path fill="#ffffff" opacity="1.00" d=" M 242.04 3.99 C 279.81 -0.19 318.55 3.39 354.60 15.60 C 389.33 27.08 421.99 46.12 447.24 72.78 C 453.70 79.59 459.31 87.14 464.89 94.68 C 444.53 116.00 424.13 137.29 403.66 158.50 C 383.32 138.12 360.30 119.87 333.77 108.24 C 317.74 101.16 300.55 96.57 283.05 95.35 C 252.23 93.38 220.65 99.51 193.58 114.62 C 166.10 129.63 142.99 152.91 129.09 181.05 C 115.21 207.94 110.36 238.91 112.74 268.92 C 115.27 301.15 128.38 332.24 148.79 357.21 C 169.84 382.85 198.73 401.89 230.49 411.40 C 253.54 418.15 278.12 419.43 301.80 415.56 C 322.50 411.98 342.62 404.10 359.53 391.52 C 378.72 377.61 393.82 356.34 395.90 332.26 C 350.89 332.25 305.88 332.26 260.87 332.25 C 260.89 300.92 260.84 269.58 260.90 238.25 C 337.65 238.24 414.41 238.25 491.16 238.25 C 500.12 283.78 497.88 332.26 480.57 375.61 C 466.55 410.71 443.13 442.09 412.94 464.90 C 380.41 489.79 340.76 505.01 300.05 509.06 C 255.86 513.36 210.38 507.24 169.57 489.45 C 132.22 473.43 98.65 448.54 72.81 417.14 C 56.17 396.95 42.91 374.02 33.37 349.67 C 20.73 317.42 15.30 282.55 16.23 247.97 C 17.04 202.46 30.40 157.20 54.93 118.82 C 81.73 76.39 121.96 42.77 168.14 23.24 C 191.61 13.16 216.63 6.65 242.04 3.99 Z" />
</g>
</svg>
